<svg xmlns="http://www.w3.org/2000/svg" width="480" height="300" viewBox="0 0 480 300" role="img" aria-label="复盘 visual asset 45">
  <defs>
    <radialGradient id="g45" cx="45%" cy="35%" r="70%">
      <stop offset="0%" stop-color="#fbbf24" stop-opacity="0.34"/>
      <stop offset="48%" stop-color="#22d3ee" stop-opacity="0.16"/>
      <stop offset="100%" stop-color="#080a10" stop-opacity="1"/>
    </radialGradient>
    <linearGradient id="line45" x1="0" x2="1" y1="0" y2="1">
      <stop offset="0" stop-color="#fbbf24"/>
      <stop offset="1" stop-color="#22d3ee"/>
    </linearGradient>
    <filter id="glow45" x="-50%" y="-50%" width="200%" height="200%">
      <feGaussianBlur stdDeviation="5" result="blur"/>
      <feMerge><feMergeNode in="blur"/><feMergeNode in="SourceGraphic"/></feMerge>
    </filter>
  </defs>
  <rect width="480" height="300" rx="28" fill="#080a10"/>
  <rect x="1" y="1" width="478" height="298" rx="27" fill="url(#g45)" stroke="#fbbf24" stroke-opacity="0.22"/>
  <g opacity="0.22"><path d="M100 72 C 180 44, 298 100, 378 72" stroke="#fbbf24" stroke-opacity="0.22" stroke-width="1.2" fill="none"/><path d="M53 106 C 133 78, 279 134, 359 106" stroke="#fbbf24" stroke-opacity="0.30" stroke-width="1.2" fill="none"/><path d="M66 140 C 146 112, 340 168, 420 140" stroke="#fbbf24" stroke-opacity="0.38" stroke-width="1.2" fill="none"/><path d="M79 174 C 159 146, 321 202, 401 174" stroke="#fbbf24" stroke-opacity="0.22" stroke-width="1.2" fill="none"/><path d="M92 208 C 172 180, 302 236, 382 208" stroke="#fbbf24" stroke-opacity="0.30" stroke-width="1.2" fill="none"/><path d="M105 242 C 185 214, 283 270, 363 242" stroke="#fbbf24" stroke-opacity="0.38" stroke-width="1.2" fill="none"/></g>
  <ellipse cx="252" cy="126" rx="80" ry="48" fill="none" stroke="url(#line45)" stroke-width="1.8" filter="url(#glow45)"/>
  <ellipse cx="252" cy="126" rx="40" ry="24" fill="none" stroke="#22d3ee" stroke-opacity="0.65" stroke-width="1.2" transform="rotate(52 252 126)"/>
  <g><circle cx="86" cy="168" r="3" fill="#fbbf24" fill-opacity="0.75"/><circle cx="98" cy="60" r="4" fill="#22d3ee" fill-opacity="0.75"/><circle cx="110" cy="172" r="5" fill="#fbbf24" fill-opacity="0.75"/><circle cx="122" cy="64" r="6" fill="#22d3ee" fill-opacity="0.75"/><circle cx="134" cy="176" r="3" fill="#fbbf24" fill-opacity="0.75"/><circle cx="146" cy="68" r="4" fill="#22d3ee" fill-opacity="0.75"/><circle cx="158" cy="180" r="5" fill="#fbbf24" fill-opacity="0.75"/><circle cx="170" cy="72" r="6" fill="#22d3ee" fill-opacity="0.75"/><circle cx="182" cy="184" r="3" fill="#fbbf24" fill-opacity="0.75"/></g>
  <text x="34" y="252" fill="#e8e6e0" font-family="ui-sans-serif, system-ui" font-size="22" font-weight="800">复盘</text>
  <text x="34" y="274" fill="#fbbf24" font-family="ui-monospace, monospace" font-size="11" letter-spacing="3">DEBRIEF / 045</text>
</svg>