<svg xmlns="http://www.w3.org/2000/svg" width="480" height="300" viewBox="0 0 480 300" role="img" aria-label="复盘 visual asset 5">
  <defs>
    <radialGradient id="g5" cx="45%" cy="35%" r="70%">
      <stop offset="0%" stop-color="#fbbf24" stop-opacity="0.34"/>
      <stop offset="48%" stop-color="#22d3ee" stop-opacity="0.16"/>
      <stop offset="100%" stop-color="#080a10" stop-opacity="1"/>
    </radialGradient>
    <linearGradient id="line5" x1="0" x2="1" y1="0" y2="1">
      <stop offset="0" stop-color="#fbbf24"/>
      <stop offset="1" stop-color="#22d3ee"/>
    </linearGradient>
    <filter id="glow5" x="-50%" y="-50%" width="200%" height="200%">
      <feGaussianBlur stdDeviation="5" result="blur"/>
      <feMerge><feMergeNode in="blur"/><feMergeNode in="SourceGraphic"/></feMerge>
    </filter>
  </defs>
  <rect width="480" height="300" rx="28" fill="#080a10"/>
  <rect x="1" y="1" width="478" height="298" rx="27" fill="url(#g5)" stroke="#fbbf24" stroke-opacity="0.22"/>
  <g opacity="0.22"><path d="M80 71 C 160 43, 338 99, 418 71" stroke="#fbbf24" stroke-opacity="0.22" stroke-width="1.2" fill="none"/><path d="M93 105 C 173 77, 319 133, 399 105" stroke="#fbbf24" stroke-opacity="0.30" stroke-width="1.2" fill="none"/><path d="M106 139 C 186 111, 300 167, 380 139" stroke="#fbbf24" stroke-opacity="0.38" stroke-width="1.2" fill="none"/><path d="M59 173 C 139 145, 281 201, 361 173" stroke="#fbbf24" stroke-opacity="0.22" stroke-width="1.2" fill="none"/><path d="M72 207 C 152 179, 342 235, 422 207" stroke="#fbbf24" stroke-opacity="0.30" stroke-width="1.2" fill="none"/><path d="M85 241 C 165 213, 323 269, 403 241" stroke="#fbbf24" stroke-opacity="0.38" stroke-width="1.2" fill="none"/></g>
  <ellipse cx="212" cy="126" rx="64" ry="88" fill="none" stroke="url(#line5)" stroke-width="1.8" filter="url(#glow5)"/>
  <ellipse cx="212" cy="126" rx="32" ry="44" fill="none" stroke="#22d3ee" stroke-opacity="0.65" stroke-width="1.2" transform="rotate(32 212 126)"/>
  <g><circle cx="326" cy="248" r="3" fill="#fbbf24" fill-opacity="0.75"/><circle cx="418" cy="120" r="4" fill="#22d3ee" fill-opacity="0.75"/><circle cx="130" cy="212" r="5" fill="#fbbf24" fill-opacity="0.75"/><circle cx="222" cy="84" r="6" fill="#22d3ee" fill-opacity="0.75"/><circle cx="314" cy="176" r="3" fill="#fbbf24" fill-opacity="0.75"/><circle cx="406" cy="48" r="4" fill="#22d3ee" fill-opacity="0.75"/><circle cx="118" cy="140" r="5" fill="#fbbf24" fill-opacity="0.75"/><circle cx="210" cy="232" r="6" fill="#22d3ee" fill-opacity="0.75"/><circle cx="302" cy="104" r="3" fill="#fbbf24" fill-opacity="0.75"/></g>
  <text x="34" y="252" fill="#e8e6e0" font-family="ui-sans-serif, system-ui" font-size="22" font-weight="800">复盘</text>
  <text x="34" y="274" fill="#fbbf24" font-family="ui-monospace, monospace" font-size="11" letter-spacing="3">DEBRIEF / 005</text>
</svg>