<svg xmlns="http://www.w3.org/2000/svg" width="480" height="300" viewBox="0 0 480 300" role="img" aria-label="复盘 visual asset 44">
  <defs>
    <radialGradient id="g44" cx="45%" cy="35%" r="70%">
      <stop offset="0%" stop-color="#fbbf24" stop-opacity="0.34"/>
      <stop offset="48%" stop-color="#22d3ee" stop-opacity="0.16"/>
      <stop offset="100%" stop-color="#080a10" stop-opacity="1"/>
    </radialGradient>
    <linearGradient id="line44" x1="0" x2="1" y1="0" y2="1">
      <stop offset="0" stop-color="#fbbf24"/>
      <stop offset="1" stop-color="#22d3ee"/>
    </linearGradient>
    <filter id="glow44" x="-50%" y="-50%" width="200%" height="200%">
      <feGaussianBlur stdDeviation="5" result="blur"/>
      <feMerge><feMergeNode in="blur"/><feMergeNode in="SourceGraphic"/></feMerge>
    </filter>
  </defs>
  <rect width="480" height="300" rx="28" fill="#080a10"/>
  <rect x="1" y="1" width="478" height="298" rx="27" fill="url(#g44)" stroke="#fbbf24" stroke-opacity="0.22"/>
  <g opacity="0.22"><path d="M83 76 C 163 48, 315 104, 395 76" stroke="#fbbf24" stroke-opacity="0.22" stroke-width="1.2" fill="none"/><path d="M96 110 C 176 82, 296 138, 376 110" stroke="#fbbf24" stroke-opacity="0.30" stroke-width="1.2" fill="none"/><path d="M49 144 C 129 116, 277 172, 357 144" stroke="#fbbf24" stroke-opacity="0.38" stroke-width="1.2" fill="none"/><path d="M62 178 C 142 150, 338 206, 418 178" stroke="#fbbf24" stroke-opacity="0.22" stroke-width="1.2" fill="none"/><path d="M75 212 C 155 184, 319 240, 399 212" stroke="#fbbf24" stroke-opacity="0.30" stroke-width="1.2" fill="none"/><path d="M88 246 C 168 218, 300 274, 380 246" stroke="#fbbf24" stroke-opacity="0.38" stroke-width="1.2" fill="none"/></g>
  <ellipse cx="235" cy="195" rx="130" ry="94" fill="none" stroke="url(#line44)" stroke-width="1.8" filter="url(#glow44)"/>
  <ellipse cx="235" cy="195" rx="65" ry="47" fill="none" stroke="#22d3ee" stroke-opacity="0.65" stroke-width="1.2" transform="rotate(35 235 195)"/>
  <g><circle cx="415" cy="49" r="3" fill="#fbbf24" fill-opacity="0.75"/><circle cx="410" cy="144" r="4" fill="#22d3ee" fill-opacity="0.75"/><circle cx="405" cy="239" r="5" fill="#fbbf24" fill-opacity="0.75"/><circle cx="400" cy="114" r="6" fill="#22d3ee" fill-opacity="0.75"/><circle cx="395" cy="209" r="3" fill="#fbbf24" fill-opacity="0.75"/><circle cx="390" cy="84" r="4" fill="#22d3ee" fill-opacity="0.75"/><circle cx="385" cy="179" r="5" fill="#fbbf24" fill-opacity="0.75"/><circle cx="380" cy="54" r="6" fill="#22d3ee" fill-opacity="0.75"/><circle cx="375" cy="149" r="3" fill="#fbbf24" fill-opacity="0.75"/></g>
  <text x="34" y="252" fill="#e8e6e0" font-family="ui-sans-serif, system-ui" font-size="22" font-weight="800">复盘</text>
  <text x="34" y="274" fill="#fbbf24" font-family="ui-monospace, monospace" font-size="11" letter-spacing="3">DEBRIEF / 044</text>
</svg>