<svg xmlns="http://www.w3.org/2000/svg" width="480" height="300" viewBox="0 0 480 300" role="img" aria-label="心理 visual asset 19">
  <defs>
    <radialGradient id="g19" cx="45%" cy="35%" r="70%">
      <stop offset="0%" stop-color="#c084fc" stop-opacity="0.34"/>
      <stop offset="48%" stop-color="#fb7185" stop-opacity="0.16"/>
      <stop offset="100%" stop-color="#080a10" stop-opacity="1"/>
    </radialGradient>
    <linearGradient id="line19" x1="0" x2="1" y1="0" y2="1">
      <stop offset="0" stop-color="#c084fc"/>
      <stop offset="1" stop-color="#fb7185"/>
    </linearGradient>
    <filter id="glow19" x="-50%" y="-50%" width="200%" height="200%">
      <feGaussianBlur stdDeviation="5" result="blur"/>
      <feMerge><feMergeNode in="blur"/><feMergeNode in="SourceGraphic"/></feMerge>
    </filter>
  </defs>
  <rect width="480" height="300" rx="28" fill="#080a10"/>
  <rect x="1" y="1" width="478" height="298" rx="27" fill="url(#g19)" stroke="#c084fc" stroke-opacity="0.22"/>
  <g opacity="0.22"><path d="M78 71 C 158 43, 340 99, 420 71" stroke="#c084fc" stroke-opacity="0.22" stroke-width="1.2" fill="none"/><path d="M91 105 C 171 77, 321 133, 401 105" stroke="#c084fc" stroke-opacity="0.30" stroke-width="1.2" fill="none"/><path d="M104 139 C 184 111, 302 167, 382 139" stroke="#c084fc" stroke-opacity="0.38" stroke-width="1.2" fill="none"/><path d="M57 173 C 137 145, 283 201, 363 173" stroke="#c084fc" stroke-opacity="0.22" stroke-width="1.2" fill="none"/><path d="M70 207 C 150 179, 344 235, 424 207" stroke="#c084fc" stroke-opacity="0.30" stroke-width="1.2" fill="none"/><path d="M83 241 C 163 213, 325 269, 405 241" stroke="#c084fc" stroke-opacity="0.38" stroke-width="1.2" fill="none"/></g>
  <ellipse cx="130" cy="120" rx="120" ry="92" fill="none" stroke="url(#line19)" stroke-width="1.8" filter="url(#glow19)"/>
  <ellipse cx="130" cy="120" rx="60" ry="46" fill="none" stroke="#fb7185" stroke-opacity="0.65" stroke-width="1.2" transform="rotate(30 130 120)"/>
  <g><circle cx="280" cy="154" r="3" fill="#c084fc" fill-opacity="0.75"/><circle cx="230" cy="44" r="4" fill="#fb7185" fill-opacity="0.75"/><circle cx="180" cy="154" r="5" fill="#c084fc" fill-opacity="0.75"/><circle cx="130" cy="44" r="6" fill="#fb7185" fill-opacity="0.75"/><circle cx="80" cy="154" r="3" fill="#c084fc" fill-opacity="0.75"/><circle cx="410" cy="44" r="4" fill="#fb7185" fill-opacity="0.75"/><circle cx="360" cy="154" r="5" fill="#c084fc" fill-opacity="0.75"/><circle cx="310" cy="44" r="6" fill="#fb7185" fill-opacity="0.75"/><circle cx="260" cy="154" r="3" fill="#c084fc" fill-opacity="0.75"/></g>
  <text x="34" y="252" fill="#e8e6e0" font-family="ui-sans-serif, system-ui" font-size="22" font-weight="800">心理</text>
  <text x="34" y="274" fill="#c084fc" font-family="ui-monospace, monospace" font-size="11" letter-spacing="3">HR-MIND / 019</text>
</svg>