<svg xmlns="http://www.w3.org/2000/svg" width="480" height="300" viewBox="0 0 480 300" role="img" aria-label="心理 visual asset 11">
  <defs>
    <radialGradient id="g11" cx="45%" cy="35%" r="70%">
      <stop offset="0%" stop-color="#c084fc" stop-opacity="0.34"/>
      <stop offset="48%" stop-color="#fb7185" stop-opacity="0.16"/>
      <stop offset="100%" stop-color="#080a10" stop-opacity="1"/>
    </radialGradient>
    <linearGradient id="line11" x1="0" x2="1" y1="0" y2="1">
      <stop offset="0" stop-color="#c084fc"/>
      <stop offset="1" stop-color="#fb7185"/>
    </linearGradient>
    <filter id="glow11" x="-50%" y="-50%" width="200%" height="200%">
      <feGaussianBlur stdDeviation="5" result="blur"/>
      <feMerge><feMergeNode in="blur"/><feMergeNode in="SourceGraphic"/></feMerge>
    </filter>
  </defs>
  <rect width="480" height="300" rx="28" fill="#080a10"/>
  <rect x="1" y="1" width="478" height="298" rx="27" fill="url(#g11)" stroke="#c084fc" stroke-opacity="0.22"/>
  <g opacity="0.22"><path d="M62 75 C 142 47, 316 103, 396 75" stroke="#c084fc" stroke-opacity="0.22" stroke-width="1.2" fill="none"/><path d="M75 109 C 155 81, 297 137, 377 109" stroke="#c084fc" stroke-opacity="0.30" stroke-width="1.2" fill="none"/><path d="M88 143 C 168 115, 278 171, 358 143" stroke="#c084fc" stroke-opacity="0.38" stroke-width="1.2" fill="none"/><path d="M101 177 C 181 149, 339 205, 419 177" stroke="#c084fc" stroke-opacity="0.22" stroke-width="1.2" fill="none"/><path d="M54 211 C 134 183, 320 239, 400 211" stroke="#c084fc" stroke-opacity="0.30" stroke-width="1.2" fill="none"/><path d="M67 245 C 147 217, 301 273, 381 245" stroke="#c084fc" stroke-opacity="0.38" stroke-width="1.2" fill="none"/></g>
  <ellipse cx="154" cy="192" rx="100" ry="100" fill="none" stroke="url(#line11)" stroke-width="1.8" filter="url(#glow11)"/>
  <ellipse cx="154" cy="192" rx="50" ry="50" fill="none" stroke="#fb7185" stroke-opacity="0.65" stroke-width="1.2" transform="rotate(14 154 192)"/>
  <g><circle cx="252" cy="82" r="3" fill="#c084fc" fill-opacity="0.75"/><circle cx="66" cy="56" r="4" fill="#fb7185" fill-opacity="0.75"/><circle cx="260" cy="250" r="5" fill="#c084fc" fill-opacity="0.75"/><circle cx="74" cy="224" r="6" fill="#fb7185" fill-opacity="0.75"/><circle cx="268" cy="198" r="3" fill="#c084fc" fill-opacity="0.75"/><circle cx="82" cy="172" r="4" fill="#fb7185" fill-opacity="0.75"/><circle cx="276" cy="146" r="5" fill="#c084fc" fill-opacity="0.75"/><circle cx="90" cy="120" r="6" fill="#fb7185" fill-opacity="0.75"/><circle cx="284" cy="94" r="3" fill="#c084fc" fill-opacity="0.75"/></g>
  <text x="34" y="252" fill="#e8e6e0" font-family="ui-sans-serif, system-ui" font-size="22" font-weight="800">心理</text>
  <text x="34" y="274" fill="#c084fc" font-family="ui-monospace, monospace" font-size="11" letter-spacing="3">HR-MIND / 011</text>
</svg>