<svg xmlns="http://www.w3.org/2000/svg" width="480" height="300" viewBox="0 0 480 300" role="img" aria-label="心理 visual asset 3">
  <defs>
    <radialGradient id="g3" cx="45%" cy="35%" r="70%">
      <stop offset="0%" stop-color="#c084fc" stop-opacity="0.34"/>
      <stop offset="48%" stop-color="#fb7185" stop-opacity="0.16"/>
      <stop offset="100%" stop-color="#080a10" stop-opacity="1"/>
    </radialGradient>
    <linearGradient id="line3" x1="0" x2="1" y1="0" y2="1">
      <stop offset="0" stop-color="#c084fc"/>
      <stop offset="1" stop-color="#fb7185"/>
    </linearGradient>
    <filter id="glow3" x="-50%" y="-50%" width="200%" height="200%">
      <feGaussianBlur stdDeviation="5" result="blur"/>
      <feMerge><feMergeNode in="blur"/><feMergeNode in="SourceGraphic"/></feMerge>
    </filter>
  </defs>
  <rect width="480" height="300" rx="28" fill="#080a10"/>
  <rect x="1" y="1" width="478" height="298" rx="27" fill="url(#g3)" stroke="#c084fc" stroke-opacity="0.22"/>
  <g opacity="0.22"><path d="M106 72 C 186 44, 292 100, 372 72" stroke="#c084fc" stroke-opacity="0.22" stroke-width="1.2" fill="none"/><path d="M59 106 C 139 78, 273 134, 353 106" stroke="#c084fc" stroke-opacity="0.30" stroke-width="1.2" fill="none"/><path d="M72 140 C 152 112, 334 168, 414 140" stroke="#c084fc" stroke-opacity="0.38" stroke-width="1.2" fill="none"/><path d="M85 174 C 165 146, 315 202, 395 174" stroke="#c084fc" stroke-opacity="0.22" stroke-width="1.2" fill="none"/><path d="M98 208 C 178 180, 296 236, 376 208" stroke="#c084fc" stroke-opacity="0.30" stroke-width="1.2" fill="none"/><path d="M51 242 C 131 214, 277 270, 357 242" stroke="#c084fc" stroke-opacity="0.38" stroke-width="1.2" fill="none"/></g>
  <ellipse cx="178" cy="144" rx="80" ry="36" fill="none" stroke="url(#line3)" stroke-width="1.8" filter="url(#glow3)"/>
  <ellipse cx="178" cy="144" rx="40" ry="18" fill="none" stroke="#fb7185" stroke-opacity="0.65" stroke-width="1.2" transform="rotate(58 178 144)"/>
  <g><circle cx="224" cy="230" r="3" fill="#c084fc" fill-opacity="0.75"/><circle cx="282" cy="68" r="4" fill="#fb7185" fill-opacity="0.75"/><circle cx="340" cy="126" r="5" fill="#c084fc" fill-opacity="0.75"/><circle cx="398" cy="184" r="6" fill="#fb7185" fill-opacity="0.75"/><circle cx="76" cy="242" r="3" fill="#c084fc" fill-opacity="0.75"/><circle cx="134" cy="80" r="4" fill="#fb7185" fill-opacity="0.75"/><circle cx="192" cy="138" r="5" fill="#c084fc" fill-opacity="0.75"/><circle cx="250" cy="196" r="6" fill="#fb7185" fill-opacity="0.75"/><circle cx="308" cy="254" r="3" fill="#c084fc" fill-opacity="0.75"/></g>
  <text x="34" y="252" fill="#e8e6e0" font-family="ui-sans-serif, system-ui" font-size="22" font-weight="800">心理</text>
  <text x="34" y="274" fill="#c084fc" font-family="ui-monospace, monospace" font-size="11" letter-spacing="3">HR-MIND / 003</text>
</svg>