<svg xmlns="http://www.w3.org/2000/svg" width="480" height="300" viewBox="0 0 480 300" role="img" aria-label="心理 visual asset 55">
  <defs>
    <radialGradient id="g55" cx="45%" cy="35%" r="70%">
      <stop offset="0%" stop-color="#c084fc" stop-opacity="0.34"/>
      <stop offset="48%" stop-color="#fb7185" stop-opacity="0.16"/>
      <stop offset="100%" stop-color="#080a10" stop-opacity="1"/>
    </radialGradient>
    <linearGradient id="line55" x1="0" x2="1" y1="0" y2="1">
      <stop offset="0" stop-color="#c084fc"/>
      <stop offset="1" stop-color="#fb7185"/>
    </linearGradient>
    <filter id="glow55" x="-50%" y="-50%" width="200%" height="200%">
      <feGaussianBlur stdDeviation="5" result="blur"/>
      <feMerge><feMergeNode in="blur"/><feMergeNode in="SourceGraphic"/></feMerge>
    </filter>
  </defs>
  <rect width="480" height="300" rx="28" fill="#080a10"/>
  <rect x="1" y="1" width="478" height="298" rx="27" fill="url(#g55)" stroke="#c084fc" stroke-opacity="0.22"/>
  <g opacity="0.22"><path d="M90 74 C 170 46, 288 102, 368 74" stroke="#c084fc" stroke-opacity="0.22" stroke-width="1.2" fill="none"/><path d="M103 108 C 183 80, 349 136, 429 108" stroke="#c084fc" stroke-opacity="0.30" stroke-width="1.2" fill="none"/><path d="M56 142 C 136 114, 330 170, 410 142" stroke="#c084fc" stroke-opacity="0.38" stroke-width="1.2" fill="none"/><path d="M69 176 C 149 148, 311 204, 391 176" stroke="#c084fc" stroke-opacity="0.22" stroke-width="1.2" fill="none"/><path d="M82 210 C 162 182, 292 238, 372 210" stroke="#c084fc" stroke-opacity="0.30" stroke-width="1.2" fill="none"/><path d="M95 244 C 175 216, 273 272, 353 244" stroke="#c084fc" stroke-opacity="0.38" stroke-width="1.2" fill="none"/></g>
  <ellipse cx="262" cy="156" rx="84" ry="92" fill="none" stroke="url(#line55)" stroke-width="1.8" filter="url(#glow55)"/>
  <ellipse cx="262" cy="156" rx="42" ry="46" fill="none" stroke="#fb7185" stroke-opacity="0.65" stroke-width="1.2" transform="rotate(42 262 156)"/>
  <g><circle cx="216" cy="258" r="3" fill="#c084fc" fill-opacity="0.75"/><circle cx="398" cy="100" r="4" fill="#fb7185" fill-opacity="0.75"/><circle cx="200" cy="162" r="5" fill="#c084fc" fill-opacity="0.75"/><circle cx="382" cy="224" r="6" fill="#fb7185" fill-opacity="0.75"/><circle cx="184" cy="66" r="3" fill="#c084fc" fill-opacity="0.75"/><circle cx="366" cy="128" r="4" fill="#fb7185" fill-opacity="0.75"/><circle cx="168" cy="190" r="5" fill="#c084fc" fill-opacity="0.75"/><circle cx="350" cy="252" r="6" fill="#fb7185" fill-opacity="0.75"/><circle cx="152" cy="94" r="3" fill="#c084fc" fill-opacity="0.75"/></g>
  <text x="34" y="252" fill="#e8e6e0" font-family="ui-sans-serif, system-ui" font-size="22" font-weight="800">心理</text>
  <text x="34" y="274" fill="#c084fc" font-family="ui-monospace, monospace" font-size="11" letter-spacing="3">HR-MIND / 055</text>
</svg>