<svg xmlns="http://www.w3.org/2000/svg" width="480" height="300" viewBox="0 0 480 300" role="img" aria-label="情报 visual asset 15">
  <defs>
    <radialGradient id="g15" cx="45%" cy="35%" r="70%">
      <stop offset="0%" stop-color="#5eead4" stop-opacity="0.34"/>
      <stop offset="48%" stop-color="#22d3ee" stop-opacity="0.16"/>
      <stop offset="100%" stop-color="#080a10" stop-opacity="1"/>
    </radialGradient>
    <linearGradient id="line15" x1="0" x2="1" y1="0" y2="1">
      <stop offset="0" stop-color="#5eead4"/>
      <stop offset="1" stop-color="#22d3ee"/>
    </linearGradient>
    <filter id="glow15" x="-50%" y="-50%" width="200%" height="200%">
      <feGaussianBlur stdDeviation="5" result="blur"/>
      <feMerge><feMergeNode in="blur"/><feMergeNode in="SourceGraphic"/></feMerge>
    </filter>
  </defs>
  <rect width="480" height="300" rx="28" fill="#080a10"/>
  <rect x="1" y="1" width="478" height="298" rx="27" fill="url(#g15)" stroke="#5eead4" stroke-opacity="0.22"/>
  <g opacity="0.22"><path d="M75 71 C 155 43, 323 99, 403 71" stroke="#5eead4" stroke-opacity="0.22" stroke-width="1.2" fill="none"/><path d="M88 105 C 168 77, 304 133, 384 105" stroke="#5eead4" stroke-opacity="0.30" stroke-width="1.2" fill="none"/><path d="M101 139 C 181 111, 285 167, 365 139" stroke="#5eead4" stroke-opacity="0.38" stroke-width="1.2" fill="none"/><path d="M54 173 C 134 145, 346 201, 426 173" stroke="#5eead4" stroke-opacity="0.22" stroke-width="1.2" fill="none"/><path d="M67 207 C 147 179, 327 235, 407 207" stroke="#5eead4" stroke-opacity="0.30" stroke-width="1.2" fill="none"/><path d="M80 241 C 160 213, 308 269, 388 241" stroke="#5eead4" stroke-opacity="0.38" stroke-width="1.2" fill="none"/></g>
  <ellipse cx="227" cy="171" rx="78" ry="38" fill="none" stroke="url(#line15)" stroke-width="1.8" filter="url(#glow15)"/>
  <ellipse cx="227" cy="171" rx="39" ry="19" fill="none" stroke="#22d3ee" stroke-opacity="0.65" stroke-width="1.2" transform="rotate(27 227 171)"/>
  <g><circle cx="91" cy="153" r="3" fill="#5eead4" fill-opacity="0.75"/><circle cx="358" cy="200" r="4" fill="#22d3ee" fill-opacity="0.75"/><circle cx="245" cy="247" r="5" fill="#5eead4" fill-opacity="0.75"/><circle cx="132" cy="74" r="6" fill="#22d3ee" fill-opacity="0.75"/><circle cx="399" cy="121" r="3" fill="#5eead4" fill-opacity="0.75"/><circle cx="286" cy="168" r="4" fill="#22d3ee" fill-opacity="0.75"/><circle cx="173" cy="215" r="5" fill="#5eead4" fill-opacity="0.75"/><circle cx="60" cy="262" r="6" fill="#22d3ee" fill-opacity="0.75"/><circle cx="327" cy="89" r="3" fill="#5eead4" fill-opacity="0.75"/></g>
  <text x="34" y="252" fill="#e8e6e0" font-family="ui-sans-serif, system-ui" font-size="22" font-weight="800">情报</text>
  <text x="34" y="274" fill="#5eead4" font-family="ui-monospace, monospace" font-size="11" letter-spacing="3">INTELLIGENCE / 015</text>
</svg>