<svg xmlns="http://www.w3.org/2000/svg" width="480" height="300" viewBox="0 0 480 300" role="img" aria-label="情报 visual asset 60">
  <defs>
    <radialGradient id="g60" cx="45%" cy="35%" r="70%">
      <stop offset="0%" stop-color="#5eead4" stop-opacity="0.34"/>
      <stop offset="48%" stop-color="#22d3ee" stop-opacity="0.16"/>
      <stop offset="100%" stop-color="#080a10" stop-opacity="1"/>
    </radialGradient>
    <linearGradient id="line60" x1="0" x2="1" y1="0" y2="1">
      <stop offset="0" stop-color="#5eead4"/>
      <stop offset="1" stop-color="#22d3ee"/>
    </linearGradient>
    <filter id="glow60" x="-50%" y="-50%" width="200%" height="200%">
      <feGaussianBlur stdDeviation="5" result="blur"/>
      <feMerge><feMergeNode in="blur"/><feMergeNode in="SourceGraphic"/></feMerge>
    </filter>
  </defs>
  <rect width="480" height="300" rx="28" fill="#080a10"/>
  <rect x="1" y="1" width="478" height="298" rx="27" fill="url(#g60)" stroke="#5eead4" stroke-opacity="0.22"/>
  <g opacity="0.22"><path d="M60 73 C 140 45, 278 101, 358 73" stroke="#5eead4" stroke-opacity="0.22" stroke-width="1.2" fill="none"/><path d="M73 107 C 153 79, 339 135, 419 107" stroke="#5eead4" stroke-opacity="0.30" stroke-width="1.2" fill="none"/><path d="M86 141 C 166 113, 320 169, 400 141" stroke="#5eead4" stroke-opacity="0.38" stroke-width="1.2" fill="none"/><path d="M99 175 C 179 147, 301 203, 381 175" stroke="#5eead4" stroke-opacity="0.22" stroke-width="1.2" fill="none"/><path d="M52 209 C 132 181, 282 237, 362 209" stroke="#5eead4" stroke-opacity="0.30" stroke-width="1.2" fill="none"/><path d="M65 243 C 145 215, 343 271, 423 243" stroke="#5eead4" stroke-opacity="0.38" stroke-width="1.2" fill="none"/></g>
  <ellipse cx="192" cy="186" rx="96" ry="56" fill="none" stroke="url(#line60)" stroke-width="1.8" filter="url(#glow60)"/>
  <ellipse cx="192" cy="186" rx="48" ry="28" fill="none" stroke="#22d3ee" stroke-opacity="0.65" stroke-width="1.2" transform="rotate(12 192 186)"/>
  <g><circle cx="106" cy="228" r="3" fill="#5eead4" fill-opacity="0.75"/><circle cx="378" cy="160" r="4" fill="#22d3ee" fill-opacity="0.75"/><circle cx="270" cy="92" r="5" fill="#5eead4" fill-opacity="0.75"/><circle cx="162" cy="244" r="6" fill="#22d3ee" fill-opacity="0.75"/><circle cx="54" cy="176" r="3" fill="#5eead4" fill-opacity="0.75"/><circle cx="326" cy="108" r="4" fill="#22d3ee" fill-opacity="0.75"/><circle cx="218" cy="260" r="5" fill="#5eead4" fill-opacity="0.75"/><circle cx="110" cy="192" r="6" fill="#22d3ee" fill-opacity="0.75"/><circle cx="382" cy="124" r="3" fill="#5eead4" fill-opacity="0.75"/></g>
  <text x="34" y="252" fill="#e8e6e0" font-family="ui-sans-serif, system-ui" font-size="22" font-weight="800">情报</text>
  <text x="34" y="274" fill="#5eead4" font-family="ui-monospace, monospace" font-size="11" letter-spacing="3">INTELLIGENCE / 060</text>
</svg>