<svg xmlns="http://www.w3.org/2000/svg" width="480" height="300" viewBox="0 0 480 300" role="img" aria-label="情报 visual asset 56">
  <defs>
    <radialGradient id="g56" cx="45%" cy="35%" r="70%">
      <stop offset="0%" stop-color="#5eead4" stop-opacity="0.34"/>
      <stop offset="48%" stop-color="#22d3ee" stop-opacity="0.16"/>
      <stop offset="100%" stop-color="#080a10" stop-opacity="1"/>
    </radialGradient>
    <linearGradient id="line56" x1="0" x2="1" y1="0" y2="1">
      <stop offset="0" stop-color="#5eead4"/>
      <stop offset="1" stop-color="#22d3ee"/>
    </linearGradient>
    <filter id="glow56" x="-50%" y="-50%" width="200%" height="200%">
      <feGaussianBlur stdDeviation="5" result="blur"/>
      <feMerge><feMergeNode in="blur"/><feMergeNode in="SourceGraphic"/></feMerge>
    </filter>
  </defs>
  <rect width="480" height="300" rx="28" fill="#080a10"/>
  <rect x="1" y="1" width="478" height="298" rx="27" fill="url(#g56)" stroke="#5eead4" stroke-opacity="0.22"/>
  <g opacity="0.22"><path d="M52 75 C 132 47, 346 103, 426 75" stroke="#5eead4" stroke-opacity="0.22" stroke-width="1.2" fill="none"/><path d="M65 109 C 145 81, 327 137, 407 109" stroke="#5eead4" stroke-opacity="0.30" stroke-width="1.2" fill="none"/><path d="M78 143 C 158 115, 308 171, 388 143" stroke="#5eead4" stroke-opacity="0.38" stroke-width="1.2" fill="none"/><path d="M91 177 C 171 149, 289 205, 369 177" stroke="#5eead4" stroke-opacity="0.22" stroke-width="1.2" fill="none"/><path d="M104 211 C 184 183, 350 239, 430 211" stroke="#5eead4" stroke-opacity="0.30" stroke-width="1.2" fill="none"/><path d="M57 245 C 137 217, 331 273, 411 245" stroke="#5eead4" stroke-opacity="0.38" stroke-width="1.2" fill="none"/></g>
  <ellipse cx="124" cy="102" rx="128" ry="96" fill="none" stroke="url(#line56)" stroke-width="1.8" filter="url(#glow56)"/>
  <ellipse cx="124" cy="102" rx="64" ry="48" fill="none" stroke="#22d3ee" stroke-opacity="0.65" stroke-width="1.2" transform="rotate(4 124 102)"/>
  <g><circle cx="282" cy="192" r="3" fill="#5eead4" fill-opacity="0.75"/><circle cx="106" cy="56" r="4" fill="#22d3ee" fill-opacity="0.75"/><circle cx="310" cy="140" r="5" fill="#5eead4" fill-opacity="0.75"/><circle cx="134" cy="224" r="6" fill="#22d3ee" fill-opacity="0.75"/><circle cx="338" cy="88" r="3" fill="#5eead4" fill-opacity="0.75"/><circle cx="162" cy="172" r="4" fill="#22d3ee" fill-opacity="0.75"/><circle cx="366" cy="256" r="5" fill="#5eead4" fill-opacity="0.75"/><circle cx="190" cy="120" r="6" fill="#22d3ee" fill-opacity="0.75"/><circle cx="394" cy="204" r="3" fill="#5eead4" fill-opacity="0.75"/></g>
  <text x="34" y="252" fill="#e8e6e0" font-family="ui-sans-serif, system-ui" font-size="22" font-weight="800">情报</text>
  <text x="34" y="274" fill="#5eead4" font-family="ui-monospace, monospace" font-size="11" letter-spacing="3">INTELLIGENCE / 056</text>
</svg>