<svg xmlns="http://www.w3.org/2000/svg" width="480" height="300" viewBox="0 0 480 300" role="img" aria-label="市场 visual asset 19">
  <defs>
    <radialGradient id="g19" cx="45%" cy="35%" r="70%">
      <stop offset="0%" stop-color="#34d399" stop-opacity="0.34"/>
      <stop offset="48%" stop-color="#fbbf24" stop-opacity="0.16"/>
      <stop offset="100%" stop-color="#080a10" stop-opacity="1"/>
    </radialGradient>
    <linearGradient id="line19" x1="0" x2="1" y1="0" y2="1">
      <stop offset="0" stop-color="#34d399"/>
      <stop offset="1" stop-color="#fbbf24"/>
    </linearGradient>
    <filter id="glow19" x="-50%" y="-50%" width="200%" height="200%">
      <feGaussianBlur stdDeviation="5" result="blur"/>
      <feMerge><feMergeNode in="blur"/><feMergeNode in="SourceGraphic"/></feMerge>
    </filter>
  </defs>
  <rect width="480" height="300" rx="28" fill="#080a10"/>
  <rect x="1" y="1" width="478" height="298" rx="27" fill="url(#g19)" stroke="#34d399" stroke-opacity="0.22"/>
  <g opacity="0.22"><path d="M77 70 C 157 42, 341 98, 421 70" stroke="#34d399" stroke-opacity="0.22" stroke-width="1.2" fill="none"/><path d="M90 104 C 170 76, 322 132, 402 104" stroke="#34d399" stroke-opacity="0.30" stroke-width="1.2" fill="none"/><path d="M103 138 C 183 110, 303 166, 383 138" stroke="#34d399" stroke-opacity="0.38" stroke-width="1.2" fill="none"/><path d="M56 172 C 136 144, 284 200, 364 172" stroke="#34d399" stroke-opacity="0.22" stroke-width="1.2" fill="none"/><path d="M69 206 C 149 178, 345 234, 425 206" stroke="#34d399" stroke-opacity="0.30" stroke-width="1.2" fill="none"/><path d="M82 240 C 162 212, 326 268, 406 240" stroke="#34d399" stroke-opacity="0.38" stroke-width="1.2" fill="none"/></g>
  <ellipse cx="129" cy="117" rx="118" ry="82" fill="none" stroke="url(#line19)" stroke-width="1.8" filter="url(#glow19)"/>
  <ellipse cx="129" cy="117" rx="59" ry="41" fill="none" stroke="#fbbf24" stroke-opacity="0.65" stroke-width="1.2" transform="rotate(29 129 117)"/>
  <g><circle cx="277" cy="147" r="3" fill="#34d399" fill-opacity="0.75"/><circle cx="226" cy="256" r="4" fill="#fbbf24" fill-opacity="0.75"/><circle cx="175" cy="145" r="5" fill="#34d399" fill-opacity="0.75"/><circle cx="124" cy="254" r="6" fill="#fbbf24" fill-opacity="0.75"/><circle cx="73" cy="143" r="3" fill="#34d399" fill-opacity="0.75"/><circle cx="402" cy="252" r="4" fill="#fbbf24" fill-opacity="0.75"/><circle cx="351" cy="141" r="5" fill="#34d399" fill-opacity="0.75"/><circle cx="300" cy="250" r="6" fill="#fbbf24" fill-opacity="0.75"/><circle cx="249" cy="139" r="3" fill="#34d399" fill-opacity="0.75"/></g>
  <text x="34" y="252" fill="#e8e6e0" font-family="ui-sans-serif, system-ui" font-size="22" font-weight="800">市场</text>
  <text x="34" y="274" fill="#34d399" font-family="ui-monospace, monospace" font-size="11" letter-spacing="3">MARKET / 019</text>
</svg>