<svg xmlns="http://www.w3.org/2000/svg" width="480" height="300" viewBox="0 0 480 300" role="img" aria-label="市场 visual asset 12">
  <defs>
    <radialGradient id="g12" cx="45%" cy="35%" r="70%">
      <stop offset="0%" stop-color="#34d399" stop-opacity="0.34"/>
      <stop offset="48%" stop-color="#fbbf24" stop-opacity="0.16"/>
      <stop offset="100%" stop-color="#080a10" stop-opacity="1"/>
    </radialGradient>
    <linearGradient id="line12" x1="0" x2="1" y1="0" y2="1">
      <stop offset="0" stop-color="#34d399"/>
      <stop offset="1" stop-color="#fbbf24"/>
    </linearGradient>
    <filter id="glow12" x="-50%" y="-50%" width="200%" height="200%">
      <feGaussianBlur stdDeviation="5" result="blur"/>
      <feMerge><feMergeNode in="blur"/><feMergeNode in="SourceGraphic"/></feMerge>
    </filter>
  </defs>
  <rect width="480" height="300" rx="28" fill="#080a10"/>
  <rect x="1" y="1" width="478" height="298" rx="27" fill="url(#g12)" stroke="#34d399" stroke-opacity="0.22"/>
  <g opacity="0.22"><path d="M78 70 C 158 42, 300 98, 380 70" stroke="#34d399" stroke-opacity="0.22" stroke-width="1.2" fill="none"/><path d="M91 104 C 171 76, 281 132, 361 104" stroke="#34d399" stroke-opacity="0.30" stroke-width="1.2" fill="none"/><path d="M104 138 C 184 110, 342 166, 422 138" stroke="#34d399" stroke-opacity="0.38" stroke-width="1.2" fill="none"/><path d="M57 172 C 137 144, 323 200, 403 172" stroke="#34d399" stroke-opacity="0.22" stroke-width="1.2" fill="none"/><path d="M70 206 C 150 178, 304 234, 384 206" stroke="#34d399" stroke-opacity="0.30" stroke-width="1.2" fill="none"/><path d="M83 240 C 163 212, 285 268, 365 240" stroke="#34d399" stroke-opacity="0.38" stroke-width="1.2" fill="none"/></g>
  <ellipse cx="170" cy="120" rx="48" ry="44" fill="none" stroke="url(#line12)" stroke-width="1.8" filter="url(#glow12)"/>
  <ellipse cx="170" cy="120" rx="24" ry="22" fill="none" stroke="#fbbf24" stroke-opacity="0.65" stroke-width="1.2" transform="rotate(30 170 120)"/>
  <g><circle cx="300" cy="194" r="3" fill="#34d399" fill-opacity="0.75"/><circle cx="130" cy="184" r="4" fill="#fbbf24" fill-opacity="0.75"/><circle cx="340" cy="174" r="5" fill="#34d399" fill-opacity="0.75"/><circle cx="170" cy="164" r="6" fill="#fbbf24" fill-opacity="0.75"/><circle cx="380" cy="154" r="3" fill="#34d399" fill-opacity="0.75"/><circle cx="210" cy="144" r="4" fill="#fbbf24" fill-opacity="0.75"/><circle cx="420" cy="134" r="5" fill="#34d399" fill-opacity="0.75"/><circle cx="250" cy="124" r="6" fill="#fbbf24" fill-opacity="0.75"/><circle cx="80" cy="114" r="3" fill="#34d399" fill-opacity="0.75"/></g>
  <text x="34" y="252" fill="#e8e6e0" font-family="ui-sans-serif, system-ui" font-size="22" font-weight="800">市场</text>
  <text x="34" y="274" fill="#34d399" font-family="ui-monospace, monospace" font-size="11" letter-spacing="3">MARKET / 012</text>
</svg>