<svg xmlns="http://www.w3.org/2000/svg" width="480" height="300" viewBox="0 0 480 300" role="img" aria-label="谈判 visual asset 33">
  <defs>
    <radialGradient id="g33" cx="45%" cy="35%" r="70%">
      <stop offset="0%" stop-color="#22d3ee" stop-opacity="0.34"/>
      <stop offset="48%" stop-color="#60a5fa" stop-opacity="0.16"/>
      <stop offset="100%" stop-color="#080a10" stop-opacity="1"/>
    </radialGradient>
    <linearGradient id="line33" x1="0" x2="1" y1="0" y2="1">
      <stop offset="0" stop-color="#22d3ee"/>
      <stop offset="1" stop-color="#60a5fa"/>
    </linearGradient>
    <filter id="glow33" x="-50%" y="-50%" width="200%" height="200%">
      <feGaussianBlur stdDeviation="5" result="blur"/>
      <feMerge><feMergeNode in="blur"/><feMergeNode in="SourceGraphic"/></feMerge>
    </filter>
  </defs>
  <rect width="480" height="300" rx="28" fill="#080a10"/>
  <rect x="1" y="1" width="478" height="298" rx="27" fill="url(#g33)" stroke="#22d3ee" stroke-opacity="0.22"/>
  <g opacity="0.22"><path d="M80 75 C 160 47, 338 103, 418 75" stroke="#22d3ee" stroke-opacity="0.22" stroke-width="1.2" fill="none"/><path d="M93 109 C 173 81, 319 137, 399 109" stroke="#22d3ee" stroke-opacity="0.30" stroke-width="1.2" fill="none"/><path d="M106 143 C 186 115, 300 171, 380 143" stroke="#22d3ee" stroke-opacity="0.38" stroke-width="1.2" fill="none"/><path d="M59 177 C 139 149, 281 205, 361 177" stroke="#22d3ee" stroke-opacity="0.22" stroke-width="1.2" fill="none"/><path d="M72 211 C 152 183, 342 239, 422 211" stroke="#22d3ee" stroke-opacity="0.30" stroke-width="1.2" fill="none"/><path d="M85 245 C 165 217, 323 273, 403 245" stroke="#22d3ee" stroke-opacity="0.38" stroke-width="1.2" fill="none"/></g>
  <ellipse cx="212" cy="126" rx="100" ry="64" fill="none" stroke="url(#line33)" stroke-width="1.8" filter="url(#glow33)"/>
  <ellipse cx="212" cy="126" rx="50" ry="32" fill="none" stroke="#60a5fa" stroke-opacity="0.65" stroke-width="1.2" transform="rotate(32 212 126)"/>
  <g><circle cx="246" cy="88" r="3" fill="#22d3ee" fill-opacity="0.75"/><circle cx="58" cy="220" r="4" fill="#60a5fa" fill-opacity="0.75"/><circle cx="250" cy="132" r="5" fill="#22d3ee" fill-opacity="0.75"/><circle cx="62" cy="44" r="6" fill="#60a5fa" fill-opacity="0.75"/><circle cx="254" cy="176" r="3" fill="#22d3ee" fill-opacity="0.75"/><circle cx="66" cy="88" r="4" fill="#60a5fa" fill-opacity="0.75"/><circle cx="258" cy="220" r="5" fill="#22d3ee" fill-opacity="0.75"/><circle cx="70" cy="132" r="6" fill="#60a5fa" fill-opacity="0.75"/><circle cx="262" cy="44" r="3" fill="#22d3ee" fill-opacity="0.75"/></g>
  <text x="34" y="252" fill="#e8e6e0" font-family="ui-sans-serif, system-ui" font-size="22" font-weight="800">谈判</text>
  <text x="34" y="274" fill="#22d3ee" font-family="ui-monospace, monospace" font-size="11" letter-spacing="3">NEGOTIATION / 033</text>
</svg>