<svg xmlns="http://www.w3.org/2000/svg" width="480" height="300" viewBox="0 0 480 300" role="img" aria-label="谈判 visual asset 11">
  <defs>
    <radialGradient id="g11" cx="45%" cy="35%" r="70%">
      <stop offset="0%" stop-color="#22d3ee" stop-opacity="0.34"/>
      <stop offset="48%" stop-color="#60a5fa" stop-opacity="0.16"/>
      <stop offset="100%" stop-color="#080a10" stop-opacity="1"/>
    </radialGradient>
    <linearGradient id="line11" x1="0" x2="1" y1="0" y2="1">
      <stop offset="0" stop-color="#22d3ee"/>
      <stop offset="1" stop-color="#60a5fa"/>
    </linearGradient>
    <filter id="glow11" x="-50%" y="-50%" width="200%" height="200%">
      <feGaussianBlur stdDeviation="5" result="blur"/>
      <feMerge><feMergeNode in="blur"/><feMergeNode in="SourceGraphic"/></feMerge>
    </filter>
  </defs>
  <rect width="480" height="300" rx="28" fill="#080a10"/>
  <rect x="1" y="1" width="478" height="298" rx="27" fill="url(#g11)" stroke="#22d3ee" stroke-opacity="0.22"/>
  <g opacity="0.22"><path d="M66 72 C 146 44, 312 100, 392 72" stroke="#22d3ee" stroke-opacity="0.22" stroke-width="1.2" fill="none"/><path d="M79 106 C 159 78, 293 134, 373 106" stroke="#22d3ee" stroke-opacity="0.30" stroke-width="1.2" fill="none"/><path d="M92 140 C 172 112, 274 168, 354 140" stroke="#22d3ee" stroke-opacity="0.38" stroke-width="1.2" fill="none"/><path d="M105 174 C 185 146, 335 202, 415 174" stroke="#22d3ee" stroke-opacity="0.22" stroke-width="1.2" fill="none"/><path d="M58 208 C 138 180, 316 236, 396 208" stroke="#22d3ee" stroke-opacity="0.30" stroke-width="1.2" fill="none"/><path d="M71 242 C 151 214, 297 270, 377 242" stroke="#22d3ee" stroke-opacity="0.38" stroke-width="1.2" fill="none"/></g>
  <ellipse cx="158" cy="204" rx="108" ry="68" fill="none" stroke="url(#line11)" stroke-width="1.8" filter="url(#glow11)"/>
  <ellipse cx="158" cy="204" rx="54" ry="34" fill="none" stroke="#60a5fa" stroke-opacity="0.65" stroke-width="1.2" transform="rotate(18 158 204)"/>
  <g><circle cx="264" cy="110" r="3" fill="#22d3ee" fill-opacity="0.75"/><circle cx="82" cy="88" r="4" fill="#60a5fa" fill-opacity="0.75"/><circle cx="280" cy="66" r="5" fill="#22d3ee" fill-opacity="0.75"/><circle cx="98" cy="44" r="6" fill="#60a5fa" fill-opacity="0.75"/><circle cx="296" cy="242" r="3" fill="#22d3ee" fill-opacity="0.75"/><circle cx="114" cy="220" r="4" fill="#60a5fa" fill-opacity="0.75"/><circle cx="312" cy="198" r="5" fill="#22d3ee" fill-opacity="0.75"/><circle cx="130" cy="176" r="6" fill="#60a5fa" fill-opacity="0.75"/><circle cx="328" cy="154" r="3" fill="#22d3ee" fill-opacity="0.75"/></g>
  <text x="34" y="252" fill="#e8e6e0" font-family="ui-sans-serif, system-ui" font-size="22" font-weight="800">谈判</text>
  <text x="34" y="274" fill="#22d3ee" font-family="ui-monospace, monospace" font-size="11" letter-spacing="3">NEGOTIATION / 011</text>
</svg>